#!OML:ASF E:/inclinewalkrobotboard/Project1/Captureday1/Session1/subject1.ASF
:FULLY-SPECIFIED
:DEGREES
151
root 0 0 0 1.0393290493869034 -3.672630152763628 1.8303346049778155
lowerback 11.978642537627163 0.849481636540258 -0.06281913581982893
upperback -4.230486194422389 1.0787426281601005 -0.5427703219052252
thorax -11.341325416160466 0.4937871038372957 -0.7840604994815352
lowerneck -5.779808443127604 1.4864095400303552 4.565036822244806
upperneck 18.034277641641626 2.9414734817029733 -8.344314073320064
head 6.589008005238492 1.0740911964834996 -3.2249025358377255
rclavicle 2.0706537829441204E-16 -2.0347306479838353E-15
rhumerus 19.887543113475566 14.348809651180485 -47.737815029496936
rradius 72.2314322776723
rwrist 27.129752560214698
rhand -34.628394051024195 -57.10398780260293
rfingers 7.125020000000035
rthumb -7.781467304456731 -87.15850755373806
lclavicle -1.1094615879928853E-16 -4.504235033421381E-16
lhumerus 21.02953662896631 -12.455390522970195 45.30156465978467
lradius 70.0292213154677
lwrist -22.264720808942904
lhand -44.782698038355186 -70.24363703777843
lfingers 7.125020000000026
lthumb -17.570802508219806 -40.92195374196727
rfemur -24.696785336218294 -2.314719305089358 17.111225031104343
rtibia 54.50819365076007
rfoot -28.99497960533926 -16.654656591379837
rtoes -18.496591035081536
lfemur -25.89975758977111 2.4394631799363644 -18.063624566375896
ltibia 53.19642121996203
lfoot -30.791713304406418 -3.4570346159925682
ltoes -20.878716720037062
152
root 0 0 0 1.0393717750440974 -3.67251728083627 1.8303721798168517
lowerback 11.978639348499867 0.8494943383340423 -0.06285874022696603
upperback -4.230515243344257 1.0787519322373131 -0.5427954742287574
thorax -11.341354700001835 0.4937925594388643 -0.7840676995857558
lowerneck -5.780060481317167 1.4864291606355793 4.564993126540935
upperneck 18.03441943684536 2.9414850898766933 -8.344191931332853
head 6.589096713819392 1.0740984609094888 -3.2248570228075217
rclavicle 1.9885951815220247E-16 -2.034633596215193E-15
rhumerus 19.886586438740494 14.347804702003561 -47.73779096579202
rradius 72.23069440901352
rwrist 27.130108615458038
rhand -34.62894127238797 -57.104556606359466
rfingers 7.125020000000035
rthumb -7.781978741455613 -87.15911417794749
lclavicle -1.1866154437295784E-16 -4.493477573082426E-16
lhumerus 21.029458429024885 -12.455087943864894 45.301994346577985
lradius 70.02900450633712
lwrist -22.26455042803855
lhand -44.7830095691116 -70.24515460213297
lfingers 7.125020000000026
lthumb -17.57111312274584 -40.923451853312216
rfemur -24.697110325755816 -2.314884055478563 17.111251716899556
rtibia 54.50912368336127
rfoot -28.994645421091306 -16.65460116110784
rtoes -18.496024123927523
lfemur -25.90045161188337 2.4395246993772783 -18.063752968321534
ltibia 53.19761631853862
lfoot -30.791080450035526 -3.4573923956862727
ltoes -20.87701809183318
153
root 0 0 0 1.0394425970634664 -3.6723758599081675 1.8304101730005802
lowerback 11.978650378441083 0.8495060253433883 -0.06290767219233931
upperback -4.230549588284295 1.0787594222950503 -0.5428227855259806
thorax -11.341399645128062 0.49379697859274585 -0.7840719975453116
lowerneck -5.780381263575509 1.486443233624347 4.5649167363481284
upperneck 18.03457986992578 2.9414866452798005 -8.344019059839844
head 6.589203853009248 1.07410056350245 -3.2247904695879717
rclavicle 1.9510571829082395E-16 -2.03458382323782E-15
rhumerus 19.885705757117556 14.346936683024692 -47.73799130762229
rradius 72.23004982330545
rwrist 27.13029216954555
rhand -34.62963914692463 -57.10519132327312
rfingers 7.125020000000035
rthumb -7.782648102262155 -87.1597504000527
lclavicle -1.2240730291420788E-16 -4.486538875044687E-16
lhumerus 21.029233918530096 -12.454685501609614 45.30248559114439
lradius 70.02870194324625
lwrist -22.264383848995475
lhand -44.783274826954724 -70.24655242184029
lfingers 7.125020000000026
lthumb -17.571364390608135 -40.924892568605145
rfemur -24.697251840548606 -2.314924493152158 17.11121794931444
rtibia 54.50937284184625
rfoot -28.994377413787703 -16.65463162708093
rtoes -18.495662429150293
lfemur -25.9012705357029 2.439472851721529 -18.063880068177845
ltibia 53.19818395669043
lfoot -30.790930891888607 -3.4574550186192714
ltoes -20.875227982169804
154
root 0 0 0 1.039289834396365 -3.6727894305334092 1.830241131504655
lowerback 11.978665902428983 0.849452201215884 -0.0627760147429807
upperback -4.230439979504327 1.0787178051738053 -0.5427262641011181
thorax -11.341309774699715 0.4937724287849618 -0.7840354775157421
lowerneck -5.779383066642014 1.486378245768794 4.565063026354122
upperneck 18.034021359492897 2.9414676729178977 -8.344456663274006
head 6.588856820991446 1.0740727124624017 -3.224943338526781
rclavicle 1.8435401121388294E-16 -2.02638028352085E-15
rhumerus 19.88708940731537 14.348713759194663 -47.73706080922196
rradius 72.23058571266131
rwrist 27.12902745148024
rhand -34.6253261834648 -57.09910089831337
rfingers 7.125020000000035
rthumb -7.778398633578003 -87.15337349957237
lclavicle -1.3360554854794756E-16 -4.3865080560985036E-16
lhumerus 21.030595437450607 -12.45684655827177 45.30109444430412
lradius 70.02923408802235
lwrist -22.263883648084022
lhand -44.78206364100828 -70.23619949807497
lfingers 7.125020000000026
lthumb -17.570069769946734 -40.914829784244304
rfemur -24.695892759492143 -2.313688471732286 17.111409616074077
rtibia 54.50259086402869
rfoot -28.99517204311537 -16.6544284889869
rtoes -18.494412897616833
lfemur -25.897531662244898 2.439160988947076 -18.063264955056844
ltibia 53.19361109291439
lfoot -30.794878970764316 -3.455421462236341
ltoes -20.88275411138847
155
root 0 0 0 1.0393175324126045 -3.6726514076069674 1.8303274109890286
lowerback 11.978642942250644 0.8494789648915076 -0.06281031362489725
upperback -4.230479134084531 1.0787406342542354 -0.5427653463273627
thorax -11.341317855437644 0.4937859501552483 -0.7840595757891253
lowerneck -5.7797540125219715 1.486405544749319 4.565047782257627
upperneck 18.034245801424316 2.9414709824055105 -8.344341733797554
head 6.58898838200942 1.0740897353868575 -3.224913086281706
rclavicle 2.0732821570723947E-16 -2.0346988684020975E-15
rhumerus 19.88763538574546 14.348899358500246 -47.737785664047145
rradius 72.231495665815
rwrist 27.129734392872386
rhand -34.62830263994199 -57.10389266804654
rfingers 7.125020000000035
rthumb -7.781380076461311 -87.15841136823936
lclavicle -1.1066795634374779E-16 -4.504349661138267E-16
lhumerus 21.02956577519387 -12.455443900335684 45.30150395534634
lradius 70.02925651167979
lwrist -22.264735982358207
lhand -44.78266419965459 -70.24344310609243
lfingers 7.125020000000026
lthumb -17.57077002372583 -40.92175699206864
rfemur -24.696781975551332 -2.3147194304472816 17.111227232226376
rtibia 54.50819544086259
rfoot -28.99499439021547 -16.654655804807106
rtoes -18.496602356951595
lfemur -25.899702172585197 2.4394863629660417 -18.063608199697455
ltibia 53.19643052631257
lfoot -30.791700884814524 -3.4570254921567094
ltoes -20.878857033498708
156
root 0 0 0 1.039364732968019 -3.6725304082634103 1.8303677303635295
lowerback 11.978639635992169 0.8494926841839922 -0.06285329726478145
upperback -4.230510871025785 1.0787506965006828 -0.5427923973092954
thorax -11.341350038237293 0.49379184461847164 -0.784067120994036
lowerneck -5.780026928928608 1.4864266713354826 4.564999845551101
upperneck 18.034399743072612 2.9414835138989854 -8.344208958936067
head 6.5890845971245335 1.074097543698707 -3.224863515395725
rclavicle 1.9900330535529016E-16 -2.0346075609662014E-15
rhumerus 19.886641629044295 14.347858586729895 -47.73777347385243
rradius 72.23073202487926
rwrist 27.13009724803836
rhand -34.62888529939879 -57.10449726623567
rfingers 7.125020000000035
rthumb -7.781925307071445 -87.15905417473245
lclavicle -1.1850987325950167E-16 -4.49345578462849E-16
lhumerus 21.029476738898214 -12.455121085425759 45.30195725762924
lradius 70.0290261031594
lwrist -22.264559256481903
lhand -44.78298897214098 -70.24503539182737
lfingers 7.125020000000026
lthumb -17.571093387174876 -40.923330741968705
rfemur -24.69710809482886 -2.314884070228801 17.111253093060206
rtibia 54.50912411978838
rfoot -28.99465570990769 -16.65460107404762
rtoes -18.496032150681177
lfemur -25.900418742600944 2.4395389441166864 -18.06374288858599
ltibia 53.19762188558594
lfoot -30.791073921689588 -3.45738567565674
ltoes -20.877103303697304
157
root 0 0 0 1.0394382953804788 -3.672383910191519 1.830407443758127
lowerback 11.97865056430452 0.8495050092902172 -0.06290433568519344
upperback -4.2305469030412866 1.078758662645516 -0.5428208973331912
thorax -11.341396786976036 0.49379653926211653 -0.7840716403034023
lowerneck -5.780360697902529 1.4864417002073012 4.5649208447945
upperneck 18.034567780595893 2.941485668786553 -8.344029490592643
head 6.589196420611799 1.0740999965887212 -3.224794446433059
rclavicle 1.9519566039408773E-16 -2.034569326928371E-15
rhumerus 19.885739556475023 14.346969668273722 -47.73798066619487
rradius 72.23007290484188
rwrist 27.130285239164735
rhand -34.62960513244882 -57.10515540925352
rfingers 7.125020000000035
rthumb -7.782615633151323 -87.1597140887585
lclavicle -1.223123171922361E-16 -4.486544999587851E-16
lhumerus 21.029245048904535 -12.454705665926333 45.30246294287783
lradius 70.02871515974284
lwrist -22.26438932932158
lhand -44.783262280551384 -70.24647998177386
lfingers 7.125020000000026
lthumb -17.571352368154212 -40.92481899819522
rfemur -24.69725030284706 -2.3149244370706326 17.111218803663906
rtibia 54.50937265552589
rfoot -28.99438408536686 -16.654631693840997
rtoes -18.495667807245496
lfemur -25.901250571853446 2.4394814414666133 -18.063873925080927
ltibia 53.19818692562316
lfoot -30.790927366107038 -3.45745064399273
ltoes -20.87528004649492
158
root 0 0 0 1.0471983068557207 -3.6482516445654825 1.8324071796496666
lowerback 11.977859787651456 0.8504893838504681 -0.06756494651029923
upperback -4.234928725106591 1.0791236846496948 -0.5458776431866448
thorax -11.345808111715153 0.49403396741851757 -0.7849051828044262
lowerneck -5.827483327466743 1.4889253156987647 4.554174075414874
upperneck 18.05912321213291 2.9425629400833397 -8.318511930183506
head 6.605153697487806 1.0745594462062933 -3.214891125767085
rclavicle -2.7809549805498213E-16 -1.9624769772843953E-15
rhumerus 19.77670009778231 14.264751465217405 -47.77685378785483
rradius 72.10949734087883
rwrist 27.08240833988967
rhand -34.530689874752106 -56.849745720779765
rfingers 7.125020000000033
rthumb -7.689293433824023 -86.89780370960554
lclavicle -4.906997168947574E-16 -4.083287671775168E-16
lhumerus 20.873348732045613 -12.415618835512612 45.427409714188016
lradius 69.86201159385688
lwrist -22.161772894525413
lhand -44.72601851489371 -69.859538646303
lfingers 7.125020000000025
lthumb -17.512438139719745 -40.560940847359774
rfemur -24.63215483314568 -2.269995440534741 17.102243481761896
rtibia 54.39202564929868
rfoot -28.773747886275956 -16.620097169259843
rtoes -18.35833260017685
lfemur -25.835933755683733 2.4090901561747833 -18.07330876811981
ltibia 53.161439660543984
lfoot -30.6780160685866 -3.5462299623198685
ltoes -20.7953667942752
